<?xml version="1.0" encoding="UTF-8" standalone="no"?>
<svg
   version="1.1"
   x="0px"
   y="0px"
   viewBox="0 0 59.997 66.25"
   style="enable-background:new 0 0 59.997 53;"
   xml:space="preserve"
   id="svg13"
   sodipodi:docname="noun-soil-2079601.svg"
   inkscape:version="1.4 (e7c3feb100, 2024-10-09)"
   xmlns:inkscape="http://www.inkscape.org/namespaces/inkscape"
   xmlns:sodipodi="http://sodipodi.sourceforge.net/DTD/sodipodi-0.dtd"
   xmlns="http://www.w3.org/2000/svg"
   xmlns:svg="http://www.w3.org/2000/svg"><defs
     id="defs13" /><sodipodi:namedview
     id="namedview13"
     pagecolor="#ffffff"
     bordercolor="#000000"
     borderopacity="0.25"
     inkscape:showpageshadow="2"
     inkscape:pageopacity="0.0"
     inkscape:pagecheckerboard="0"
     inkscape:deskcolor="#d1d1d1"
     inkscape:zoom="12.045283"
     inkscape:cx="30.011748"
     inkscape:cy="33.125"
     inkscape:window-width="1920"
     inkscape:window-height="1016"
     inkscape:window-x="0"
     inkscape:window-y="0"
     inkscape:window-maximized="1"
     inkscape:current-layer="svg13" /><g
     id="g12"><path
       d="M1,53c-0.194,0-0.387-0.057-0.554-0.167C0.167,52.647,0,52.334,0,52V40c0-0.43,0.274-0.812,0.682-0.948   c0.294-0.099,0.956-0.479,1.487-0.785C2.854,37.873,3.5,37.5,3.971,37.338c0.525-0.181,1.061-0.335,1.598-0.49   c0.798-0.229,1.552-0.446,2.26-0.749c0.589-0.251,1.113-0.671,1.667-1.116c0.6-0.481,1.22-0.979,1.998-1.335   c1.316-0.603,2.752-0.792,4.151-0.544c0.829,0.146,1.678,0.435,2.522,0.858c0.821,0.412,1.49,0.951,2.136,1.472   c0.241,0.194,0.482,0.389,0.731,0.575c0.795,0.596,1.661,1.109,2.572,1.525c1.442,0.659,3.602,1.347,5.701,0.892   c0.508-0.111,1.006-0.277,1.533-0.453c0.714-0.239,1.452-0.485,2.269-0.607c1.507-0.225,2.854-0.177,4.003,0.141   c1.077,0.297,1.898,1.038,2.313,2.086c0.201,0.507,0.301,1.013,0.396,1.503c0.409-0.028,0.814-0.076,1.22-0.124   c0.368-0.043,0.736-0.086,1.105-0.117c1.097-0.09,2.196-0.173,3.295-0.236c2.566-0.146,5.048-0.357,7.207-1.324   c1.318-0.59,3.542-0.798,5.243-0.05c0.996,0.437,1.685,1.151,1.99,2.065c0,0,0,0,0,0c0.414,1.237-0.325,2.609-1.646,3.059   c-1.219,0.414-2.436,0.835-3.652,1.256l-5.094,1.763c-0.264,0.091-0.526,0.193-0.788,0.296c-0.617,0.24-1.255,0.488-1.952,0.627   c-1.316,0.261-2.544,0.238-3.73,0.216c-0.534-0.01-1.074-0.021-1.63-0.004c-1.619,0.047-3.209,0.326-4.726,0.827   c-0.493,0.163-0.981,0.35-1.47,0.536c-1.168,0.445-2.375,0.906-3.696,1.088c-1.519,0.209-3.202,0.098-4.687,0l-0.572-0.037   c-1.207-0.075-2.406-0.324-3.565-0.564c-0.851-0.177-1.654-0.344-2.459-0.447c-2.194-0.281-4.1-0.327-5.829-0.137   c-3.668,0.401-9.534,1.682-13.001,3.132C1.262,52.975,1.131,53,1,53z M2,40.648v9.897c3.743-1.33,8.845-2.38,12.17-2.743   c1.888-0.206,3.948-0.16,6.3,0.142c0.881,0.113,1.761,0.295,2.611,0.472c1.14,0.237,2.218,0.46,3.282,0.526l0.579,0.038   c1.458,0.096,2.965,0.195,4.282,0.014c1.095-0.151,2.145-0.551,3.257-0.975c0.517-0.197,1.034-0.394,1.555-0.566   c1.7-0.562,3.482-0.875,5.295-0.927c0.589-0.017,1.161-0.007,1.726,0.003c1.13,0.021,2.198,0.042,3.303-0.178   c0.524-0.104,1.055-0.311,1.616-0.529c0.287-0.112,0.573-0.223,0.86-0.322l5.094-1.762c1.22-0.423,2.439-0.845,3.662-1.26   c0.242-0.083,0.463-0.321,0.393-0.531c-0.125-0.374-0.419-0.658-0.897-0.868c-1.099-0.482-2.736-0.353-3.622,0.044   c-2.469,1.105-5.151,1.338-7.91,1.496c-1.083,0.062-2.164,0.143-3.245,0.232c-0.346,0.028-0.691,0.069-1.036,0.11   c-0.497,0.058-0.995,0.116-1.495,0.144c-0.35,0.043-0.718,0.09-1.071-0.068c-0.639-0.283-0.752-0.733-0.742-1.064   c-0.032-0.098-0.065-0.272-0.099-0.448c-0.083-0.434-0.162-0.844-0.3-1.193c-0.126-0.318-0.4-0.732-0.986-0.895   c-0.879-0.244-1.948-0.274-3.177-0.09c-0.643,0.095-1.267,0.304-1.928,0.525c-0.554,0.185-1.127,0.376-1.742,0.51   c-2.637,0.574-5.239-0.242-6.957-1.027c-1.042-0.476-2.031-1.062-2.94-1.744c-0.268-0.2-0.527-0.41-0.787-0.619   c-0.591-0.476-1.149-0.926-1.778-1.242c-0.671-0.336-1.334-0.564-1.973-0.676c-0.998-0.176-2.025-0.041-2.971,0.393   c-0.552,0.253-1.051,0.653-1.579,1.077c-0.635,0.509-1.292,1.036-2.133,1.395c-0.822,0.352-1.672,0.596-2.493,0.832   c-0.504,0.145-1.007,0.289-1.5,0.458c-0.289,0.1-0.936,0.472-1.455,0.771C2.755,40.237,2.356,40.466,2,40.648z"
       id="path1" /><path
       d="M29.561,45.743c-1.858,0-3.721-0.111-5.56-0.333c-2.336-0.281-5.346-0.793-7.904-2.273   c-0.478-0.277-0.641-0.889-0.365-1.367c0.276-0.478,0.889-0.642,1.366-0.365c2.243,1.298,4.995,1.761,7.142,2.019   c2.291,0.276,4.622,0.375,6.927,0.289l0.173-0.006c1.95-0.07,3.966-0.142,5.549-1.057c0.559-0.323,1.06-0.727,1.487-1.199   c0.37-0.41,1.003-0.441,1.412-0.07c0.41,0.37,0.441,1.003,0.071,1.412c-0.567,0.627-1.23,1.162-1.969,1.589   c-2.014,1.165-4.386,1.25-6.479,1.324l-0.172,0.006C30.681,45.733,30.121,45.743,29.561,45.743z"
       id="path2" /><path
       d="M28,28c-0.552,0-1-0.448-1-1V4c0-0.552,0.448-1,1-1s1,0.448,1,1v23C29,27.552,28.552,28,28,28z"
       id="path3" /><path
       d="M17.131,20.113c-3.124,0-6.868-0.936-9.89-4.462C7.069,15.426,4,11.25,4,4c0-0.378,0.214-0.724,0.552-0.893   C4.89,2.938,5.296,2.973,5.599,3.199C5.636,3.227,9.41,6,14,6c0.1,0,10,0.137,10,12c0,0.395-0.233,0.753-0.594,0.914   C23.355,18.937,20.633,20.113,17.131,20.113z M6.075,5.843c0.442,5.412,2.702,8.525,2.727,8.559   c4.604,5.368,11.161,3.631,13.186,2.918C21.644,8.108,14.319,8,14,8C10.673,8,7.792,6.778,6.075,5.843z"
       id="path4" /><path
       d="M22.999,19c-0.184,0-0.369-0.05-0.536-0.156l-11-7c-0.466-0.296-0.603-0.915-0.307-1.381   c0.296-0.465,0.915-0.604,1.381-0.307l11,7c0.466,0.296,0.603,0.915,0.307,1.381C23.653,18.836,23.33,19,22.999,19z"
       id="path5" /><path
       d="M40.263,22.002c-0.68,0-1.367-0.047-2.057-0.144C32.299,21.036,32,18.5,32,18c0-3.906,1.077-6.945,3.201-9.034   c2.896-2.848,6.654-2.823,6.816-2.817c5.607,0,10.404-2.965,10.451-2.995c0.308-0.193,0.698-0.204,1.016-0.028S54,3.636,54,4v5.148   c-0.248,2.533-0.964,4.727-2.134,6.619C49.448,19.682,45.038,22.002,40.263,22.002z M34,17.941   c0.102,0.399,1.075,1.462,4.482,1.938c4.752,0.662,9.338-1.364,11.683-5.162c1.008-1.632,1.627-3.539,1.84-5.668l-0.003-3.37   C50.004,6.658,46.264,8.148,42,8.148c-0.035,0.014-3.13-0.002-5.416,2.262C34.88,12.099,34.01,14.633,34,17.941z M34,17.953   c0,0.016,0,0.031,0,0.047C34,18,34.003,17.983,34,17.953z"
       id="path6" /><path
       d="M28,21c-0.124,0-0.249-0.023-0.371-0.072l-5-2c-0.513-0.206-0.762-0.787-0.557-1.3c0.205-0.512,0.788-0.76,1.3-0.557l5,2   c0.513,0.206,0.762,0.787,0.557,1.3C28.772,20.762,28.396,21,28,21z"
       id="path7" /><path
       d="M39.275,43.145c-0.19,0-0.381-0.026-0.567-0.11c-0.639-0.283-0.752-0.733-0.742-1.064   c-0.032-0.098-0.065-0.272-0.099-0.448c-0.083-0.434-0.162-0.844-0.3-1.193c-0.126-0.318-0.4-0.732-0.986-0.895   c-0.879-0.244-1.948-0.274-3.177-0.09c-0.643,0.095-1.267,0.304-1.928,0.525c-0.554,0.185-1.127,0.376-1.742,0.51   c-2.636,0.575-5.239-0.242-6.957-1.027c-1.042-0.476-2.031-1.062-2.94-1.744c-0.268-0.2-0.527-0.41-0.787-0.619   c-0.591-0.476-1.149-0.926-1.778-1.242c-0.494-0.248-1.042-0.444-1.631-0.583c-0.319-0.076-0.58-0.302-0.7-0.606   c-0.12-0.305-0.083-0.648,0.098-0.921l0.129-0.194c0.022-0.034,0.047-0.066,0.073-0.097C15.498,33.049,21.614,26,28,26   c0.384,0,9.212,0.082,12.652,7.026C44.759,33.359,48,36.808,48,41v0.519c0,0.522-0.402,0.957-0.922,0.997   c-0.509,0.04-1.018,0.073-1.522,0.102c-1.083,0.062-2.164,0.143-3.245,0.232c-0.346,0.028-0.691,0.069-1.036,0.11   c-0.497,0.058-0.995,0.116-1.495,0.144C39.614,43.124,39.445,43.145,39.275,43.145z M34.894,37.228c0.803,0,1.545,0.093,2.219,0.28   c1.077,0.297,1.898,1.038,2.313,2.086c0.201,0.507,0.301,1.013,0.396,1.503c0.409-0.028,0.814-0.076,1.22-0.124   c0.368-0.043,0.736-0.086,1.105-0.117c1.097-0.09,2.196-0.173,3.295-0.236c0.181-0.01,0.362-0.021,0.544-0.033   C45.774,37.471,43.17,35,40,35c-0.4,0-0.761-0.238-0.919-0.606C36.382,28.097,28.082,28,27.999,28   c-4.197,0-8.546,3.888-10.362,5.719c0.181,0.076,0.359,0.158,0.531,0.244v0c0.82,0.412,1.489,0.95,2.136,1.472   c0.241,0.194,0.482,0.389,0.731,0.575c0.795,0.596,1.661,1.109,2.572,1.525c1.442,0.659,3.602,1.347,5.701,0.892   c0.508-0.111,1.006-0.277,1.533-0.453c0.714-0.239,1.452-0.485,2.269-0.607C33.732,37.274,34.328,37.228,34.894,37.228z"
       id="path8" /><path
       d="M33.001,19c-0.378,0-0.74-0.215-0.909-0.581c-0.231-0.501-0.012-1.096,0.489-1.327l13-6c0.5-0.232,1.096-0.012,1.327,0.489   c0.231,0.501,0.012,1.096-0.489,1.327l-13,6C33.283,18.971,33.141,19,33.001,19z"
       id="path9" /><path
       d="M28,24c-0.256,0-0.512-0.098-0.707-0.293c-0.391-0.391-0.391-1.023,0-1.414l5-5c0.39-0.391,1.024-0.391,1.414,0   c0.391,0.391,0.391,1.023,0,1.414l-5,5C28.512,23.902,28.256,24,28,24z"
       id="path10" /><path
       d="M28,5c-0.256,0-0.512-0.098-0.707-0.293l-3-3c-0.391-0.391-0.391-1.023,0-1.414c0.39-0.391,1.024-0.391,1.414,0l3,3   c0.391,0.391,0.391,1.023,0,1.414C28.512,4.902,28.256,5,28,5z"
       id="path11" /><path
       d="M28,5c-0.256,0-0.512-0.098-0.707-0.293c-0.391-0.391-0.391-1.023,0-1.414l3-3c0.39-0.391,1.024-0.391,1.414,0   c0.391,0.391,0.391,1.023,0,1.414l-3,3C28.512,4.902,28.256,5,28,5z"
       id="path12" /></g></svg>
